<?xml version="1.0" encoding="UTF-8" standalone="no"?>
<svg
   xmlns:dc="http://purl.org/dc/elements/1.1/"
   xmlns:cc="http://creativecommons.org/ns#"
   xmlns:rdf="http://www.w3.org/1999/02/22-rdf-syntax-ns#"
   xmlns:svg="http://www.w3.org/2000/svg"
   xmlns="http://www.w3.org/2000/svg"
   xmlns:sodipodi="http://sodipodi.sourceforge.net/DTD/sodipodi-0.dtd"
   xmlns:inkscape="http://www.inkscape.org/namespaces/inkscape"
   width="320.0007"
   height="320.0007"
   viewBox="0 0 84.66685 84.666855"
   version="1.1"
   id="svg8982"
   inkscape:version="1.0 (4035a4fb49, 2020-05-01)"
   sodipodi:docname="IVy_Logo.svg"
   inkscape:export-filename="C:\REPOS\ivy\image_velocimetry_framework\UI\icons\IVy_Logo.png"
   inkscape:export-xdpi="96"
   inkscape:export-ydpi="96">
  <defs
     id="defs8976">
    <marker
       inkscape:stockid="Arrow1Send"
       orient="auto"
       refY="0"
       refX="0"
       id="marker1709"
       style="overflow:visible"
       inkscape:isstock="true">
      <path
         inkscape:connector-curvature="0"
         id="path1707"
         d="M 0,0 5,-5 -12.5,0 5,5 Z"
         style="fill:#ffffff;fill-opacity:1;fill-rule:evenodd;stroke:#ffffff;stroke-width:1.00000003pt;stroke-opacity:1"
         transform="matrix(-0.2,0,0,-0.2,-1.2,0)" />
    </marker>
    <marker
       inkscape:stockid="Arrow1Send"
       orient="auto"
       refY="0"
       refX="0"
       id="marker1699"
       style="overflow:visible"
       inkscape:isstock="true">
      <path
         inkscape:connector-curvature="0"
         id="path1697"
         d="M 0,0 5,-5 -12.5,0 5,5 Z"
         style="fill:#ffffff;fill-opacity:1;fill-rule:evenodd;stroke:#ffffff;stroke-width:1.00000003pt;stroke-opacity:1"
         transform="matrix(-0.2,0,0,-0.2,-1.2,0)" />
    </marker>
    <marker
       inkscape:stockid="Arrow1Send"
       orient="auto"
       refY="0"
       refX="0"
       id="marker1689"
       style="overflow:visible"
       inkscape:isstock="true">
      <path
         inkscape:connector-curvature="0"
         id="path1687"
         d="M 0,0 5,-5 -12.5,0 5,5 Z"
         style="fill:#ffffff;fill-opacity:1;fill-rule:evenodd;stroke:#ffffff;stroke-width:1.00000003pt;stroke-opacity:1"
         transform="matrix(-0.2,0,0,-0.2,-1.2,0)" />
    </marker>
    <marker
       inkscape:stockid="Arrow1Send"
       orient="auto"
       refY="0"
       refX="0"
       id="marker1679"
       style="overflow:visible"
       inkscape:isstock="true">
      <path
         inkscape:connector-curvature="0"
         id="path1677"
         d="M 0,0 5,-5 -12.5,0 5,5 Z"
         style="fill:#ffffff;fill-opacity:1;fill-rule:evenodd;stroke:#ffffff;stroke-width:1.00000003pt;stroke-opacity:1"
         transform="matrix(-0.2,0,0,-0.2,-1.2,0)" />
    </marker>
    <marker
       inkscape:isstock="true"
       style="overflow:visible"
       id="marker1601"
       refX="0"
       refY="0"
       orient="auto"
       inkscape:stockid="Arrow2Send">
      <path
         inkscape:connector-curvature="0"
         transform="matrix(-0.3,0,0,-0.3,0.69,0)"
         d="M 8.7185878,4.0337352 -2.2072895,0.01601326 8.7185884,-4.0017078 c -1.7454984,2.3720609 -1.7354408,5.6174519 -6e-7,8.035443 z"
         style="fill:#ffffff;fill-opacity:1;fill-rule:evenodd;stroke:#ffffff;stroke-width:0.625;stroke-linejoin:round;stroke-opacity:1"
         id="path1599" />
    </marker>
    <marker
       inkscape:isstock="true"
       style="overflow:visible;"
       id="marker1561"
       refX="0.0"
       refY="0.0"
       orient="auto"
       inkscape:stockid="Arrow1Mend">
      <path
         transform="scale(0.4) rotate(180) translate(10,0)"
         style="fill-rule:evenodd;stroke:#ffffff;stroke-width:1pt;stroke-opacity:1;fill:#ffffff;fill-opacity:1"
         d="M 0.0,0.0 L 5.0,-5.0 L -12.5,0.0 L 5.0,5.0 L 0.0,0.0 z "
         id="path1307" />
    </marker>
    <marker
       inkscape:stockid="Arrow1Mend"
       orient="auto"
       refY="0"
       refX="0"
       id="Arrow1Mend"
       style="overflow:visible"
       inkscape:isstock="true">
      <path
         id="path4733"
         d="M 0,0 5,-5 -12.5,0 5,5 Z"
         style="fill:#aa8800;fill-opacity:1;fill-rule:evenodd;stroke:#aa8800;stroke-width:1.00000003pt;stroke-opacity:1"
         transform="matrix(-0.4,0,0,-0.4,-4,0)"
         inkscape:connector-curvature="0" />
    </marker>
    <clipPath
       clipPathUnits="userSpaceOnUse"
       id="clipPath2088">
      <path
         style="fill:none;stroke:#000000;stroke-width:0.494621px;stroke-linecap:butt;stroke-linejoin:miter;stroke-opacity:1"
         d="m 36.199035,23.214252 -2.423395,2.720671 -0.8858,0.825203 -0.590523,0.808367 L 5.4475948,80.348277 1.4181305,15.878674 50.150714,-8.8908158 64.495374,15.116534 63.562649,19.720579 56.649972,26.120164 H 33.654056 Z"
         id="path2090" />
    </clipPath>
    <clipPath
       id="clipPath2088-3"
       clipPathUnits="userSpaceOnUse">
      <path
         id="path2090-9"
         d="m 36.199035,23.214252 -2.423395,2.720671 -0.8858,0.825203 -0.590523,0.808367 L 5.4475948,80.348277 1.4181305,15.878674 50.150714,-8.8908158 64.495374,15.116534 63.562649,19.720579 56.649972,26.120164 H 33.654056 Z"
         style="fill:none;stroke:#000000;stroke-width:0.494621px;stroke-linecap:butt;stroke-linejoin:miter;stroke-opacity:1" />
    </clipPath>
  </defs>
  <sodipodi:namedview
     id="base"
     pagecolor="#ffffff"
     bordercolor="#666666"
     borderopacity="1.0"
     inkscape:pageopacity="0.0"
     inkscape:pageshadow="2"
     inkscape:zoom="3.7656167"
     inkscape:cx="160.00035"
     inkscape:cy="160.00035"
     inkscape:document-units="mm"
     inkscape:current-layer="layer1"
     showgrid="false"
     units="px"
     fit-margin-top="10"
     fit-margin-left="10"
     fit-margin-right="10"
     fit-margin-bottom="10"
     inkscape:window-width="1920"
     inkscape:window-height="1017"
     inkscape:window-x="-8"
     inkscape:window-y="-8"
     inkscape:window-maximized="1"
     inkscape:document-rotation="0" />
  <metadata
     id="metadata8979">
    <rdf:RDF>
      <cc:Work
         rdf:about="">
        <dc:format>image/svg+xml</dc:format>
        <dc:type
           rdf:resource="http://purl.org/dc/dcmitype/StillImage" />
        <dc:title />
      </cc:Work>
    </rdf:RDF>
  </metadata>
  <g
     inkscape:label="Layer 1"
     inkscape:groupmode="layer"
     id="layer1"
     transform="translate(-60.192727,-96.327386)">
    <circle
       style="fill:#ffffff;fill-opacity:1;stroke:#000000;stroke-width:3.64499998;stroke-miterlimit:4;stroke-dasharray:none;stroke-opacity:1"
       id="path6437"
       cx="102.52615"
       cy="138.66081"
       r="37.865093" />
    <path
       style="fill:#fdfdfd;stroke-width:0.264583"
       d="m -244.83201,200.05895 0.009,-56.4224 1.28476,5.02709 c 10.5329,41.2136 38.11296,75.9255 75.95658,95.59793 8.76234,4.55497 17.76176,8.12011 27.78125,11.00562 l 4.10104,1.18106 -54.57032,0.0165 -54.57031,0.0166 z m 185.46442,55.47571 c 20.461465,-5.66578 39.471183,-15.7012 56.3708865,-29.75876 4.3054271,-3.58135 14.2000185,-13.48823 17.8234655,-17.8456 11.852966,-14.25377 20.557335,-29.40015 26.504904,-46.12093 1.785594,-5.01997 3.80836,-12.00557 4.840764,-16.71761 0.430424,-1.96453 0.8373,-3.81 0.904134,-4.10104 0.06686,-0.29104 0.135361,25.57529 0.152241,57.48073 l 0.03069,58.00989 -54.967189,-0.0154 -54.96719,-0.0155 z m -47.625,-11.5121 c -25.93609,-1.52736 -50.68711,-10.62266 -71.56979,-26.29988 -18.32005,-13.75338 -32.88819,-32.14042 -41.92833,-52.91946 -7.77683,-17.87525 -11.62875,-37.91432 -10.94727,-56.95156 l 0.17285,-4.82865 h 36.86352 36.86352 l 0.20323,0.72761 c 0.11178,0.40018 0.20217,1.73963 0.20088,2.97656 -0.002,2.03088 -0.0943,2.44198 -0.95042,4.23951 -1.57387,3.3045 -4.68738,6.01437 -8.93244,7.77445 -1.29602,0.53734 -2.32982,0.82029 -4.99711,1.3677 -0.62702,0.12868 -0.8345,0.64125 -0.25957,0.64125 0.69434,0 8.37908,3.47221 10.10528,4.56588 1.36881,0.86724 2.68351,1.66464 2.94156,1.78412 0.36308,0.16813 4.67342,3.19336 6.81443,4.78275 0.89711,0.66597 2.19376,1.53879 2.88144,1.93959 l 1.25032,0.72872 0.0726,4.26715 0.0726,4.26716 3.57188,-0.0704 c 3.56646,-0.0703 14.23878,0.34174 16.86718,0.65122 l 1.38907,0.16355 0.002,-1.41955 0.002,-1.41955 3.76849,-0.0593 c 2.07267,-0.0326 4.63556,-0.22335 5.69532,-0.42383 1.05975,-0.20049 1.96891,-0.29286 2.02035,-0.20527 0.10777,0.18351 -1.99118,6.37937 -3.41515,10.08112 -0.5318,1.38245 -1.09103,2.87976 -1.24274,3.32736 -0.15171,0.4476 -0.48561,1.09191 -0.74198,1.4318 l -0.46615,0.61798 -3.40621,-0.30675 c -16.82659,-1.51536 -33.28638,-0.82691 -47.06246,1.96846 -4.70262,0.95423 -10.83512,2.5978 -15.2674,4.0918 -4.17895,1.40862 -10.26868,3.88635 -10.25916,4.17416 0.003,0.0953 0.58987,1.18087 1.30381,2.41232 0.71394,1.23145 1.25336,2.31134 1.19871,2.39976 -0.0547,0.0884 -0.95203,0.50403 -1.99417,0.92356 -1.04216,0.41954 -1.9518,0.91126 -2.02143,1.09272 -0.26319,0.68587 5.29966,9.42701 9.15083,14.37909 4.87588,6.26973 10.81684,12.61072 16.4336,17.54016 21.78169,19.11626 48.96089,28.56518 78.15241,27.16989 16.195398,-0.77411 30.352644,-4.36095 43.798402,-11.09665 10.550973,-5.28555 18.77249,-11.17887 27.500605,-19.71288 7.118681,-6.96068 12.850921,-14.06347 17.470631,-21.64817 1.1494294,-1.88714 3.4680367,-6.28519 3.468841,-6.57986 2.62e-4,-0.0949 -0.5241369,-0.0147 -1.1653282,0.17831 l -1.1657992,0.35085 1.1660585,-1.9723 c 1.5726384,-2.66001 2.817384,-5.15505 2.6535354,-5.3189 -0.073787,-0.0738 -1.8972848,0.29147 -4.0522208,0.81167 -18.4464597,4.45296 -39.8052387,4.2868 -63.7138997,-0.49567 -3.201458,-0.64039 -9.392709,-2.05303 -13.758334,-3.13921 -8.920223,-2.21936 -14.571986,-3.46342 -21.166671,-4.6592 -2.47385,-0.44856 -4.75317,-0.86993 -5.06516,-0.93635 -0.56462,-0.12022 -0.56356,-0.12963 0.23046,-2.04101 1.51083,-3.63692 3.43031,-8.53738 3.80605,-9.71689 0.2071,-0.65014 0.48241,-1.28793 0.6118,-1.41732 0.13727,-0.13727 1.26479,0.58658 2.7073,1.73803 5.908629,4.71647 12.343759,7.95265 21.12518,10.62369 4.812244,1.46373 7.756371,1.76022 16.917361,1.70365 9.005956,-0.0556 11.965855,0.16234 16.873464,1.24248 1.631775,0.35915 3.056797,0.653 3.166718,0.653 0.109919,0 -0.46106,-0.68461 -1.268844,-1.52135 -2.481357,-2.57033 -3.631356,-4.37411 -5.018373,-7.87136 -0.54315,-1.36951 -0.628076,-2.02348 -0.618474,-4.7625 0.01019,-2.90392 0.07295,-3.30366 0.735174,-4.682 2.114783,-4.40164 5.644229,-6.23487 16.705684,-8.67706 8.536937,-1.88482 12.696785,-3.98624 16.072435,-8.11926 3.191785,-3.90797 5.005367,-8.95946 6.038694,-16.82011 l 0.6173632,-4.69636 H 11.571506 32.926859 l 0.191293,2.04149 c 0.288687,3.08068 -0.05596,16.36103 -0.537501,20.71268 -2.411994,21.79638 -9.757701,41.97517 -21.815682,59.92812 -9.3450992,13.91378 -21.707105,26.30606 -35.736724,35.82423 -23.993984,16.27833 -52.907641,24.20748 -82.020835,22.49303 z"
       id="path1244" />
    <path
       id="path1240-5"
       d="m 104.0677,169.35193 c 4.30719,-0.33946 7.85464,-1.30374 11.49195,-3.12379 4.68143,-2.34251 8.7786,-5.92221 11.93492,-10.42755 0.54751,-0.78152 1.72324,-2.67819 1.72324,-2.77991 0,-0.0835 -1.98393,-0.88788 -3.08733,-1.25172 -2.48061,-0.81798 -5.08366,-1.34276 -8.22104,-1.65739 -1.57815,-0.15827 -6.05301,-0.18099 -7.74697,-0.0393 -4.17522,0.34912 -7.88236,0.98771 -12.648583,2.17881 -4.7268,1.18125 -8.036836,1.70248 -11.890556,1.87239 -3.609923,0.15917 -7.41213,-0.21507 -10.459241,-1.02946 -0.146038,-0.039 -0.289421,-0.071 -0.318626,-0.071 -0.07373,0 0.621561,1.28773 1.149636,2.1292 2.500507,3.98451 6.182059,7.59835 10.192156,10.00471 3.656881,2.1944 7.624571,3.53298 12.042681,4.06284 0.94663,0.11352 4.930053,0.20372 5.837763,0.13218 z"
       style="fill:#31aab7;fill-opacity:1;stroke-width:0.0734309" />
    <g
       id="g1279">
      <path
         id="path1289"
         d="m -260.2267,183.64663 0.003,-71.10678 2.4443,-3.35152 c 7.46553,-10.236449 17.44727,-20.368956 27.57971,-27.996285 19.12127,-14.393786 41.62024,-23.166481 66.27813,-25.842853 6.14787,-0.667292 20.3083,-0.667425 26.45833,-2.48e-4 16.36039,1.774833 30.66317,5.894621 45.11146,12.993955 18.878744,9.276292 34.815231,22.478577 47.528029,39.373711 l 3.139681,4.17259 v 71.4321 71.4321 h -7.940818 -7.940821 l 0.639331,-1.01277 c 0.743906,-1.17842 3.070307,-5.65294 3.071001,-5.90665 2.62e-4,-0.0949 -0.524137,-0.0147 -1.165329,0.17831 l -1.165799,0.35085 1.166059,-1.9723 c 1.572638,-2.66001 2.817384,-5.15505 2.653535,-5.3189 -0.07379,-0.0738 -1.897285,0.29147 -4.052221,0.81167 -18.446459,4.45296 -39.805238,4.2868 -63.713898,-0.49567 -3.20146,-0.64039 -9.39271,-2.05303 -13.75833,-3.1392 -8.92023,-2.21937 -14.57199,-3.46343 -21.16667,-4.6592 -2.47386,-0.44857 -4.75318,-0.86993 -5.06516,-0.93636 -0.56463,-0.12022 -0.56357,-0.12963 0.23045,-2.04101 1.51084,-3.63692 3.43032,-8.53738 3.80605,-9.71689 0.20711,-0.65014 0.48242,-1.28793 0.6118,-1.41732 0.13727,-0.13727 1.26479,0.58658 2.7073,1.73804 5.91541,4.72187 12.46402,8.01258 21.12518,10.61549 4.91084,1.47583 6.046,1.59193 16.0073,1.63714 9.88471,0.0449 13.07713,0.28132 17.783529,1.31719 1.631775,0.35914 3.056797,0.65299 3.166718,0.65299 0.109919,0 -0.46106,-0.68461 -1.268843,-1.52135 -2.481358,-2.57033 -3.631356,-4.37411 -5.018374,-7.87136 -0.54315,-1.36951 -0.62808,-2.02347 -0.61847,-4.7625 0.0102,-2.90392 0.0729,-3.30366 0.73517,-4.682 2.114783,-4.40164 5.644229,-6.23487 16.705684,-8.67706 4.452413,-0.98302 7.346654,-1.89818 9.657292,-3.05362 7.9952,-3.99804 12.067479,-12.31079 12.87499,-26.28175 l 0.173797,-3.00693 -1.166582,0.18443 c -0.641618,0.10144 -2.178611,0.4401 -3.415538,0.75259 -1.937462,0.48946 -2.981894,0.56685 -7.540626,0.55869 -5.281734,-0.009 -5.295641,-0.011 -7.408333,-0.83273 -9.237031,-3.59275 -10.034072,-3.73179 -19.579164,-3.41544 l -1.05834,0.0351 -0.0765,-2.15824 -0.0764,-2.15825 1.08204,-0.75217 c 8.436474,-5.86452 12.562529,-9.78419 14.458666,-13.73546 1.093271,-2.27822 1.313227,-3.90225 0.905851,-6.68832 -0.843997,-5.77213 -3.769349,-9.55064 -11.398872,-14.72328 -7.151665,-4.84867 -9.059585,-6.89355 -12.114405,-12.98404 -3.09791,-6.17639 -4.72204,-11.08577 -6.03345,-18.23774 -0.71351,-3.891175 -0.72972,-4.209067 -0.82937,-16.264259 -0.0559,-6.76253 -0.13427,-12.32813 -0.17414,-12.368 -0.0399,-0.03987 -0.83033,1.0878 -1.7566,2.505929 -8.55707,13.101114 -11.99635,17.703549 -16.66421,22.300015 -2.60685,2.566975 -7.76063,6.713645 -9.65595,7.769065 -0.43656,0.2431 -1.32953,0.78717 -1.98438,1.20905 -2.38167,1.53437 -7.06142,3.71701 -9.12812,4.25736 -1.74676,0.4567 -3.38824,0.59412 -9.39271,0.78632 -8.27153,0.26477 -10.37668,0.61161 -13.73483,2.26291 -2.74204,1.34835 -5.77684,4.35272 -6.96383,6.89403 -0.81097,1.73623 -0.84656,1.95079 -0.82764,4.98925 0.0202,3.24678 0.64159,6.57561 1.95546,10.47576 0.28646,0.85035 0.52084,1.60938 0.52084,1.68673 0,0.0773 -3.69094,0.14064 -8.20208,0.14064 h -8.20209 v 0.69742 c 0,0.6771 -0.0356,0.69254 -1.22305,0.52978 -2.34325,-0.32118 -5.45235,-1.65027 -8.30195,-3.54895 -1.59503,-1.06277 -5.20657,-4.30201 -6.89927,-6.18805 -0.89294,-0.99492 -1.77482,-1.80895 -1.95974,-1.80895 -0.64733,0 -4.42532,6.8596 -6.04878,10.98261 -1.73856,4.41536 -2.15288,6.44913 -2.15549,10.58093 -0.002,3.38775 0.0627,3.89627 0.75957,5.95312 0.41906,1.23693 0.92507,2.43693 1.12448,2.66667 0.19941,0.22974 0.36256,0.53675 0.36256,0.68224 0,0.37007 1.48423,2.61667 2.76332,4.18268 0.59023,0.72263 2.70389,3.07908 4.69704,5.23656 4.42074,4.78523 5.82683,6.61641 7.05819,9.19195 0.88045,1.84158 0.94896,2.1646 0.95407,4.49792 0.005,2.3453 -0.0582,2.64733 -0.94516,4.50441 -1.57904,3.30627 -4.69272,6.01551 -8.93504,7.77445 -1.29601,0.53735 -2.32981,0.82029 -4.9971,1.3677 -0.62421,0.1281 -0.83537,0.6406 -0.26459,0.64216 0.91672,0.003 7.69274,3.11487 10.59585,4.86687 0.98915,0.59694 2.00677,1.20441 2.26138,1.34993 0.63281,0.36169 5.01284,3.43314 7.00905,4.91504 0.89712,0.66597 2.19376,1.53879 2.88144,1.93959 l 1.25032,0.72872 0.0726,4.26715 0.0726,4.26716 3.57188,-0.0704 c 3.56646,-0.0703 14.23879,0.34174 16.86719,0.65122 l 1.38906,0.16355 0.002,-1.41955 0.002,-1.41955 3.63622,-0.0586 c 1.99992,-0.0322 4.5649,-0.2196 5.69995,-0.41639 1.13504,-0.19679 2.10374,-0.28949 2.15264,-0.20599 0.10396,0.17749 -2.02222,6.44064 -3.41975,10.07368 -0.5318,1.38245 -1.09103,2.87976 -1.24274,3.32736 -0.15171,0.4476 -0.4856,1.09191 -0.74198,1.4318 l -0.46615,0.61798 -3.40621,-0.30675 c -16.82658,-1.51536 -33.28638,-0.82691 -47.06246,1.96846 -4.70262,0.95423 -10.83512,2.5978 -15.2674,4.0918 -4.17894,1.40862 -10.26868,3.88635 -10.25916,4.17415 0.003,0.0953 0.58987,1.18087 1.30381,2.41232 0.71394,1.23145 1.25336,2.31135 1.19871,2.39977 -0.0546,0.0884 -0.95202,0.50402 -1.99417,0.92356 -1.04215,0.41954 -1.95369,0.91619 -2.02563,1.10368 -0.0719,0.18749 0.7607,1.83019 1.85032,3.65046 l 1.98103,3.30958 h -7.11308 -7.11307 z m 83.11128,-29.30293 c -0.6587,-0.75022 -0.82554,-1.1732 -0.81229,-2.05941 l 0.0167,-1.11527 0.93726,1.93444 c 0.5155,1.06394 0.88103,1.99068 0.8123,2.05941 -0.0687,0.0687 -0.498,-0.2999 -0.95393,-0.81917 z m -83.11524,-92.405408 8.6e-4,-23.878646 51.6599,0.04622 c 28.41294,0.02542 51.12411,0.08256 50.46927,0.126962 -11.65703,0.790483 -19.22258,1.909403 -28.575,4.22615 -25.91442,6.419425 -49.5893,19.734801 -68.85837,38.727746 l -4.69752,4.630209 z m 216.716267,21.695833 c -1.982745,-2.21397 -8.181279,-7.963069 -12.060192,-11.18575 -24.742932,-20.556926 -55.302375,-32.492347 -87.577085,-34.204458 -0.87313,-0.04632 21.59992,-0.106727 49.940104,-0.134242 l 51.527606,-0.05003 v 23.680208 c 0,13.024115 -0.05198,23.680209 -0.115509,23.680209 -0.06353,0 -0.835245,-0.803672 -1.714924,-1.785937 z M -260.2298,37.530797 c 0,-0.175538 36.68836,-0.264264 109.27292,-0.264263 72.583923,2e-6 109.27292,0.08873 109.27292,0.264266 0,0.175535 -36.688997,0.264263 -109.27292,0.264263 -72.58456,0 -109.27292,-0.08873 -109.27292,-0.264266 z"
         style="fill:#fdfdfd;stroke-width:0.264583" />
      <path
         id="path1283"
         d="m 110.44918,153.25913 c 0.79983,-0.10658 1.46417,-0.20317 1.47629,-0.21463 0.0121,-0.0115 -0.1382,-0.34287 -0.33408,-0.73645 -0.19587,-0.39357 -0.35614,-0.73516 -0.35614,-0.75907 0,-0.0239 -0.13762,-0.33459 -0.30583,-0.6904 -0.16821,-0.3558 -0.43569,-1.00064 -0.59439,-1.43298 -0.15869,-0.43235 -0.35245,-0.94527 -0.43057,-1.13982 -0.24033,-0.59856 -0.58381,-1.80616 -0.52925,-1.86071 0.0284,-0.0284 0.41432,0.007 0.85759,0.0794 1.24877,0.20307 2.9265,0.1765 4.16444,-0.066 1.82679,-0.3578 3.19851,-0.78262 4.25392,-1.31744 0.35276,-0.17875 0.65907,-0.34712 0.68069,-0.37414 0.0216,-0.027 0.28692,-0.21247 0.58956,-0.41209 0.30264,-0.19964 0.79787,-0.54161 1.10051,-0.75995 1.79684,-1.29635 3.38279,-2.20141 4.77444,-2.72466 0.33452,-0.12578 0.60867,-0.24876 0.60921,-0.27328 5.9e-4,-0.0245 -0.27317,-0.10751 -0.60823,-0.18443 -1.49232,-0.34257 -2.85009,-1.26687 -3.48112,-2.3698 -0.13371,-0.23369 -0.29667,-0.68961 -0.36332,-1.01643 -0.11077,-0.54317 -0.10972,-0.64339 0.0125,-1.20067 0.11038,-0.50311 0.48363,-1.35437 0.66297,-1.51201 0.0246,-0.0217 0.14138,-0.1808 0.25952,-0.35373 0.23451,-0.34328 0.36593,-0.49148 1.6627,-1.87511 1.03268,-1.10184 1.67533,-1.9363 2.05019,-2.66208 0.96247,-1.86349 0.79701,-4.09197 -0.50065,-6.74302 -0.79319,-1.62044 -1.42298,-2.5987 -1.42298,-2.21032 0,0.0381 -0.3617,0.43074 -0.80378,0.87251 -1.45496,1.45394 -2.6809,2.21531 -3.9913,2.47878 -1.4848,0.29853 -2.03971,0.46331 -2.79057,0.82867 -1.09762,0.53408 -2.3153,1.47675 -3.68744,2.85466 -1.31273,1.31824 -1.38878,1.31697 -0.72732,-0.0121 0.28656,-0.57579 0.79687,-1.69797 1.34829,-2.96492 0.097,-0.22281 0.29059,-0.8123 0.70998,-2.16171 0.41391,-1.3318 0.53063,-2.78239 0.29502,-3.66661 -0.23817,-0.89382 -1.18113,-1.90157 -2.27626,-2.43266 -0.79664,-0.38633 -1.44521,-0.48992 -3.64096,-0.58153 -2.90782,-0.12131 -3.54485,-0.24587 -4.7863,-0.93581 -0.31943,-0.17752 -0.59241,-0.32277 -0.60661,-0.32277 -0.0892,0 -1.46659,-0.91942 -2.19273,-1.46368 -1.24173,-0.93069 -2.135396,-1.82114 -3.556996,-3.54423 -0.18375,-0.2227 -0.33408,-0.43985 -0.33408,-0.48253 0,-0.0427 -0.033,-0.0894 -0.0734,-0.10381 -0.1072,-0.0383 -1.43192,-1.99453 -2.56393,-3.78629 -0.71948,-1.13879 -0.65735,-1.31338 -0.61071,1.71629 0.0585,3.80173 -0.14834,5.96585 -0.76644,8.01799 -0.2767,0.91862 -0.93942,2.5463 -1.39225,3.41943 -0.86765,1.67295 -1.44966,2.28193 -3.57077,3.73625 -1.14047,0.78196 -1.18634,0.81719 -1.66323,1.27756 -0.60943,0.58832 -0.93233,0.99387 -1.17147,1.47133 -0.58681,1.17162 -0.69832,2.42346 -0.29921,3.35896 0.62399,1.46261 2.68115,3.25087 6.17655,5.36918 1.50483,0.91197 1.53285,0.93 1.53285,0.98643 0,0.026 -0.39795,-0.0371 -0.88433,-0.14022 -1.23753,-0.26243 -1.6692,-0.32276 -2.94858,-0.41204 -2.00875,-0.14019 -2.77573,-0.007 -5.10047,0.88472 -0.98701,0.37867 -1.70908,0.48301 -2.88377,0.41676 -0.97131,-0.0548 -1.73309,-0.17039 -2.63638,-0.40008 -0.27537,-0.07 -0.51306,-0.11492 -0.52821,-0.0998 -0.0383,0.0383 0.18511,2.42305 0.28536,3.04564 0.3483,2.16293 1.33576,4.0703 2.58013,4.98375 0.87,0.63864 2.16957,1.14869 3.82314,1.50048 3.21184,0.68332 4.25978,1.19716 4.9182,2.41156 l 0.2699,0.49783 -0.004,1.1005 c -0.004,1.01398 -0.0212,1.1437 -0.22248,1.64971 -0.26288,0.66093 -0.80685,1.50237 -1.33466,2.06451 -0.21312,0.22698 -0.35371,0.41269 -0.31244,0.41269 0.0412,0 0.35592,-0.0691 0.69922,-0.1536 1.28868,-0.31711 2.51682,-0.41407 5.1142,-0.40375 2.53009,0.0101 3.61856,-0.0741 4.52848,-0.35011 0.95652,-0.29015 1.923606,-0.60747 2.143786,-0.70343 0.1297,-0.0565 0.54877,-0.23135 0.93125,-0.38852 1.24099,-0.50992 2.62279,-1.34956 3.72159,-2.26138 0.35411,-0.29386 0.67247,-0.53421 0.70747,-0.53412 0.035,8e-5 0.19405,0.36267 0.35345,0.80573 0.1594,0.44306 0.48825,1.28311 0.73078,1.86677 0.24254,0.58367 0.52346,1.27509 0.62429,1.53651 0.10082,0.26142 0.31883,0.7655 0.48447,1.12016 0.26574,0.56902 0.32464,0.64362 0.50084,0.63436 0.10982,-0.006 0.85409,-0.0977 1.65392,-0.20427 z"
         style="fill:#195800;stroke-width:0.0786076" />
    </g>
    <path
       style="fill:#0065db;stroke-width:0.0734309"
       d="m 104.33596,171.89839 c 4.30719,-0.33947 7.85463,-1.30375 11.49194,-3.12379 4.68143,-2.34251 8.77861,-5.92221 11.93493,-10.42755 0.54751,-0.78153 1.72323,-2.6782 1.72323,-2.77992 0,-0.0835 -1.98393,-0.88787 -3.08733,-1.25172 -2.4806,-0.81798 -5.08365,-1.34276 -8.22103,-1.65739 -1.57815,-0.15826 -6.05301,-0.18099 -7.74697,-0.0393 -4.17522,0.34913 -7.88237,0.98771 -12.648583,2.17881 -4.726803,1.18126 -8.036838,1.70248 -11.890559,1.8724 -3.609922,0.15916 -7.412129,-0.21507 -10.45924,-1.02946 -0.146039,-0.039 -0.289422,-0.071 -0.318627,-0.071 -0.07373,0 0.621561,1.28772 1.149637,2.1292 2.500507,3.9845 6.182058,7.59835 10.192155,10.0047 3.656882,2.19441 7.624574,3.53299 12.042674,4.06284 0.94664,0.11353 4.930063,0.20373 5.837773,0.13219 z"
       id="path1240" />
    <path
       sodipodi:nodetypes="cc"
       id="path1296"
       d="m 85.551381,160.91432 c 8.383882,-2.79462 20.079909,-3.62266 20.079909,-3.62266"
       style="fill:none;stroke:#ffffff;stroke-width:0.765;stroke-linecap:butt;stroke-linejoin:miter;stroke-miterlimit:4;stroke-dasharray:none;stroke-opacity:1;marker-end:url(#marker1601)" />
    <path
       sodipodi:nodetypes="cac"
       id="path1663"
       d="m 92.589702,164.95101 c 0,0 7.037573,-0.37129 10.350468,-1.44906 2.23102,-0.72581 6.21028,-3.31216 6.21028,-3.31216"
       style="fill:none;stroke:#ffffff;stroke-width:0.765;stroke-linecap:butt;stroke-linejoin:miter;stroke-miterlimit:4;stroke-dasharray:none;stroke-opacity:1;marker-end:url(#marker1689)" />
    <path
       sodipodi:nodetypes="cac"
       id="path1665"
       d="m 104.0677,169.35193 c 0,0 5.09678,-1.66456 7.35986,-3.05537 2.16802,-1.33238 5.79626,-4.96823 5.79626,-4.96823"
       style="fill:none;stroke:#ffffff;stroke-width:0.765;stroke-linecap:butt;stroke-linejoin:miter;stroke-miterlimit:4;stroke-dasharray:none;stroke-opacity:1;marker-end:url(#marker1699)" />
    <path
       sodipodi:nodetypes="cac"
       id="path1667"
       d="m 111.11704,156.87764 c 0,0 4.89319,-0.53 7.34884,-0.51752 2.14601,0.0109 6.41729,0.51752 6.41729,0.51752"
       style="fill:none;stroke:#ffffff;stroke-width:0.765;stroke-linecap:butt;stroke-linejoin:miter;stroke-miterlimit:4;stroke-dasharray:none;stroke-opacity:1;marker-end:url(#marker1709)" />
    <path
       sodipodi:nodetypes="cac"
       id="path1669"
       d="m 82.135725,161.43185 c 0,0 3.554829,3.34117 5.692759,4.4507 2.431605,1.26195 7.866357,2.38061 7.866357,2.38061"
       style="fill:none;stroke:#ffffff;stroke-width:0.765;stroke-linecap:butt;stroke-linejoin:miter;stroke-miterlimit:4;stroke-dasharray:none;stroke-opacity:1;marker-end:url(#marker1679)" />
  </g>
</svg>
