<?xml version="1.0" encoding="UTF-8" standalone="no"?>
<svg
   xmlns:dc="http://purl.org/dc/elements/1.1/"
   xmlns:cc="http://creativecommons.org/ns#"
   xmlns:rdf="http://www.w3.org/1999/02/22-rdf-syntax-ns#"
   xmlns:svg="http://www.w3.org/2000/svg"
   xmlns="http://www.w3.org/2000/svg"
   xmlns:sodipodi="http://sodipodi.sourceforge.net/DTD/sodipodi-0.dtd"
   xmlns:inkscape="http://www.inkscape.org/namespaces/inkscape"
   inkscape:version="1.0 (4035a4fb49, 2020-05-01)"
   height="675.26044"
   width="721.76031"
   sodipodi:docname="project-save.svg"
   id="svg845"
   version="1.1"
   viewBox="0 0 721.76031 675.26044">
  <metadata
     id="metadata851">
    <rdf:RDF>
      <cc:Work
         rdf:about="">
        <dc:format>image/svg+xml</dc:format>
        <dc:type
           rdf:resource="http://purl.org/dc/dcmitype/StillImage" />
        <dc:title></dc:title>
      </cc:Work>
    </rdf:RDF>
  </metadata>
  <defs
     id="defs849" />
  <sodipodi:namedview
     inkscape:current-layer="svg845"
     inkscape:window-maximized="0"
     inkscape:window-y="0"
     inkscape:window-x="0"
     inkscape:cy="530.92362"
     inkscape:cx="429.47004"
     inkscape:zoom="0.553125"
     fit-margin-bottom="0"
     fit-margin-right="0"
     fit-margin-left="0"
     fit-margin-top="0"
     showgrid="false"
     id="namedview847"
     inkscape:window-height="1262"
     inkscape:window-width="1291"
     inkscape:pageshadow="2"
     inkscape:pageopacity="0"
     guidetolerance="10"
     gridtolerance="10"
     objecttolerance="10"
     borderopacity="1"
     bordercolor="#666666"
     pagecolor="#ffffff" />
  <!--! Font Awesome Pro 6.2.1 by @fontawesome - https://fontawesome.com License - https://fontawesome.com/license (Commercial License) Copyright 2022 Fonticons, Inc. -->
  <path
     id="path843"
     d="m 45.021158,8.8400568 c 3,-6.1 9.6,-9.6 16.3,-8.7 l 244.800002,30.6000002 244.8,-30.6000002 c 6.7,-0.8 13.3,2.7 16.3,8.7 l 41.7,83.4000002 c 9,17.900003 -0.6,39.600003 -19.8,45.100003 l -163.4,46.7 c -13.9,4 -28.8,-1.9 -36.2,-14.3 l -83.4,-139.000003 -83.4,139.000003 c -7.4,12.4 -22.3,18.3 -36.2,14.3 l -163.300002,-46.7 c -19.2999999,-5.5 -28.7999999,-27.2 -19.7999999,-45.100003 z m 262.200002,85.9000002 54.9,91.400003 c 14.9,24.8 44.6,36.6 72.5,28.6 l 127.5,-36.4 v 167 c 0,22 -15,41.2 -36.4,46.6 l -204.1,51 c -10.2,2.6 -20.9,2.6 -31,0 l -204.100002,-51 c -21.4,-5.5 -36.4,-24.7 -36.4,-46.7 v -167 l 127.600002,36.5 c 27.8,8 57.6,-3.8 72.5,-28.6 l 54.8,-91.400003 z" />
  <path
     transform="matrix(1.1341553,0,0,1.1341553,-20.298454,-300.54951)"
     d="m 244.97266,361.76367 c -49.02568,0 -89.31055,40.28488 -89.31055,89.31055 v 320 c 0,49.02567 40.28487,89.31055 89.31055,89.31055 h 320 c 49.02567,0 89.31054,-40.28488 89.31054,-89.31055 V 518.97266 c 0,-19.47662 -8.13237,-38.51323 -22.31445,-52.69532 l -83.85547,-83.85742 -0.0215,-0.0195 c -13.4357,-13.49066 -31.60755,-20.63672 -51.01953,-20.63672 z m 89.31054,98.6211 h 93.37891 v 29.3789 H 334.2832 Z m 192,39.67187 29.37891,29.37891 V 761.76367 H 425.93555 c 39.01146,-9.54398 68.34765,-44.90601 68.34765,-86.68945 0,-41.78345 -29.33619,-77.14547 -68.34765,-86.68945 h 51.03711 c 26.87518,0 49.31054,-22.43537 49.31054,-49.31055 z m -272,77.14258 c 8.48364,6.87134 19.09205,11.18555 30.68946,11.18555 h 99.03711 c -39.01147,9.54398 -68.34766,44.906 -68.34766,86.68945 0,41.78344 29.33619,77.14547 68.34766,86.68945 H 254.2832 Z"
     inkscape:original="M 244.97266 387.07422 C 209.62266 387.07422 180.97266 415.72422 180.97266 451.07422 L 180.97266 771.07422 C 180.97266 806.42422 209.62266 835.07422 244.97266 835.07422 L 564.97266 835.07422 C 600.32266 835.07422 628.97266 806.42422 628.97266 771.07422 L 628.97266 518.97266 C 628.97266 506.27266 623.87227 493.97383 614.07227 484.17383 L 530.17188 400.27344 C 522.07187 392.13344 509.77227 387.07422 497.07227 387.07422 L 244.97266 387.07422 z M 244.97266 435.07422 L 260.97266 435.07422 L 260.97266 539.07422 C 260.97266 552.32422 271.72266 563.07422 284.97266 563.07422 L 476.97266 563.07422 C 490.27266 563.07422 500.97266 552.37422 500.97266 539.07422 L 500.97266 438.95312 L 579.22266 517.20312 C 580.37266 518.27313 580.97266 519.87305 580.97266 521.37305 L 580.97266 771.07422 C 580.97266 779.91022 573.80866 787.07422 564.97266 787.07422 L 244.97266 787.07422 C 236.13666 787.07422 228.97266 779.91022 228.97266 771.07422 L 228.97266 451.07422 C 228.97266 442.23622 236.13666 435.07422 244.97266 435.07422 z M 308.97266 435.07422 L 452.97266 435.07422 L 452.97266 515.07422 L 308.97266 515.07422 L 308.97266 435.07422 z M 404.97266 611.07422 C 369.77266 611.07422 340.97266 639.87422 340.97266 675.07422 C 340.97266 710.27422 369.77266 739.07422 404.97266 739.07422 C 440.17266 739.07422 468.97266 710.27422 468.97266 675.07422 C 468.97266 639.87422 440.17266 611.07422 404.97266 611.07422 z "
     inkscape:radius="25.310734"
     sodipodi:type="inkscape:offset"
     style="fill:#ffffff;fill-opacity:1"
     id="path853-6" />
  <path
     style="stroke-width:1.13415"
     d="m 439.0024,392.50269 c -39.92228,0 -72.58594,32.66367 -72.58594,72.58593 0,39.92228 32.66366,72.58595 72.58594,72.58595 39.92226,0 72.58593,-32.66367 72.58593,-72.58595 0,-39.92226 -32.66367,-72.58593 -72.58593,-72.58593 z M 676.15426,248.57837 580.99865,153.42275 C 571.81198,144.19073 557.86187,138.4519 543.4581,138.4519 H 257.53756 c -40.09239,0 -72.58596,32.49356 -72.58596,72.58594 v 362.92968 c 0,40.09238 32.49357,72.58595 72.58596,72.58595 h 362.92969 c 40.09238,0 72.58593,-32.49357 72.58593,-72.58595 V 288.04699 c 0,-14.40378 -5.78421,-28.35389 -16.89892,-39.46862 z M 330.1235,192.89134 h 163.31836 v 90.73243 H 330.1235 Z m 308.49024,381.07618 c 0,10.0214 -8.12509,18.14649 -18.14649,18.14649 H 257.53756 c -10.0214,0 -18.14649,-8.12509 -18.14649,-18.14649 V 211.03784 c 0,-10.02367 8.12509,-18.1465 18.14649,-18.1465 h 18.14646 v 117.95217 c 0,15.02754 12.1922,27.21972 27.21974,27.21972 h 217.75782 c 15.08427,0 27.21973,-12.13545 27.21973,-27.21972 V 197.29186 l 88.74765,88.74769 c 1.30428,1.21351 1.98478,3.02817 1.98478,4.7294 z"
     id="path853" />
</svg>
