<?xml version="1.0" encoding="UTF-8" standalone="no"?>
<svg
   xmlns:dc="http://purl.org/dc/elements/1.1/"
   xmlns:cc="http://creativecommons.org/ns#"
   xmlns:rdf="http://www.w3.org/1999/02/22-rdf-syntax-ns#"
   xmlns:svg="http://www.w3.org/2000/svg"
   xmlns="http://www.w3.org/2000/svg"
   xmlns:sodipodi="http://sodipodi.sourceforge.net/DTD/sodipodi-0.dtd"
   xmlns:inkscape="http://www.inkscape.org/namespaces/inkscape"
   viewBox="0 0 512 512"
   version="1.1"
   id="svg835"
   sodipodi:docname="square-exclamation-solid.svg"
   inkscape:version="1.0 (4035a4fb49, 2020-05-01)">
  <metadata
     id="metadata841">
    <rdf:RDF>
      <cc:Work
         rdf:about="">
        <dc:format>image/svg+xml</dc:format>
        <dc:type
           rdf:resource="http://purl.org/dc/dcmitype/StillImage" />
      </cc:Work>
    </rdf:RDF>
  </metadata>
  <defs
     id="defs839" />
  <sodipodi:namedview
     inkscape:document-rotation="0"
     pagecolor="#ffffff"
     bordercolor="#666666"
     borderopacity="1"
     objecttolerance="10"
     gridtolerance="10"
     guidetolerance="10"
     inkscape:pageopacity="0"
     inkscape:pageshadow="2"
     inkscape:window-width="1920"
     inkscape:window-height="1001"
     id="namedview837"
     showgrid="false"
     inkscape:zoom="0.828125"
     inkscape:cx="156.90289"
     inkscape:cy="182.97842"
     inkscape:window-x="-9"
     inkscape:window-y="-9"
     inkscape:window-maximized="1"
     inkscape:current-layer="svg835" />
  <!--!Font Awesome Free 6.5.1 by @fontawesome - https://fontawesome.com License - https://fontawesome.com/license/free Copyright 2024 Fonticons, Inc.-->
  <path
     style="fill:#ff4d4d;fill-opacity:1"
     d="m 256,512 c 256.0184,1.62781 256.3485,2.20794 255.99989,-256 C 512.36128,1.6443604 515.01998,2.1513101 256,0 -1.8669487,1.7564427 0.63267804,1.5725431 1.1113408e-4,256 3.231847,513.79624 4.6202713,514.00367 256,512 Z m 0,-384 c 13.3,0 24,10.7 24,24 v 112 c 0,13.3 -10.7,24 -24,24 -13.3,0 -24,-10.7 -24,-24 V 152 c 0,-13.3 10.7,-24 24,-24 z m -32,224 c 0,-17.67312 14.32689,-31.99999 32,-31.99999 17.67311,0 32,14.32687 32,31.99999 0,17.67312 -14.32689,31.99999 -32,31.99999 -17.67311,0 -32,-14.32687 -32,-31.99999 z"
     id="path833"
     sodipodi:nodetypes="cccccssssssssssss" />
</svg>
